<svg width="91" height="101" viewBox="0 0 91 101" fill="none" xmlns="http://www.w3.org/2000/svg">
<path d="M91 38.2111H64.2689C64.079 35.9709 63.5737 33.9386 62.7522 32.1145C61.9621 30.2904 60.8562 28.7222 59.4344 27.4101C58.0441 26.066 56.3535 25.0419 54.363 24.3379C52.3725 23.6018 50.1132 23.2338 47.5855 23.2338C43.1618 23.2338 39.4174 24.3219 36.3525 26.4981C33.3193 28.6742 31.0127 31.7945 29.4328 35.8586C27.8845 39.923 27.1104 44.8033 27.1104 50.5C27.1104 56.5165 27.9003 61.5568 29.4802 65.6212C31.0917 69.6532 33.4141 72.6936 36.4474 74.742C39.4808 76.758 43.1303 77.7662 47.3957 77.7662C49.8289 77.7662 52.0092 77.4621 53.9363 76.8541C55.8638 76.2139 57.5384 75.3018 58.9606 74.1179C60.3824 72.9336 61.5358 71.5097 62.4203 69.8455C63.3368 68.1494 63.9526 66.2452 64.2689 64.1331L91 64.325C90.6841 68.4855 89.5308 72.7255 87.5403 77.046C85.5494 81.3342 82.7214 85.3028 79.0562 88.9507C75.4226 92.5671 70.9199 95.4795 65.5483 97.6878C60.177 99.8957 53.9363 101 46.827 101C37.9166 101 29.9226 99.0636 22.8448 95.1915C15.7986 91.319 10.2217 85.6227 6.11406 78.1019C2.03802 70.5815 0 61.3807 0 50.5C0 39.555 2.08541 30.3383 6.25624 22.8498C10.4271 15.3292 16.0514 9.64875 23.1292 5.80845C30.2069 1.93615 38.1064 0 46.827 0C52.9568 0 58.5969 0.848065 63.7472 2.54419C68.8979 4.24034 73.4161 6.72053 77.3026 9.98478C81.1891 13.217 84.317 17.2013 86.6868 21.9377C89.057 26.6741 90.4943 32.0985 91 38.2111Z" fill="black"/>
</svg>
