<svg width="87" height="98" viewBox="0 0 87 98" fill="none" xmlns="http://www.w3.org/2000/svg">
<path d="M37.9181 98H0V0H37.5331C47.6703 0 56.428 1.96192 63.8062 5.88573C71.2168 9.77768 76.9268 15.3923 80.9369 22.7295C84.9787 30.0348 87 38.7916 87 49C87 59.2085 84.9949 67.9811 80.9851 75.3182C76.9749 82.6235 71.2969 88.2381 63.9507 92.162C56.6045 96.054 47.927 98 37.9181 98ZM26.7544 75.414H36.9557C41.8319 75.414 45.9863 74.6325 49.4187 73.0694C52.883 71.5063 55.5137 68.8105 57.3103 64.9825C59.1388 61.1541 60.0531 55.827 60.0531 49C60.0531 42.1731 59.1226 36.8456 57.2621 33.0176C55.4335 29.1895 52.7389 26.4938 49.1781 24.9307C45.6494 23.3675 41.3185 22.5859 36.1859 22.5859H26.7544V75.414Z" fill="black"/>
</svg>
