<svg width="92" height="101" viewBox="0 0 92 101" fill="none" xmlns="http://www.w3.org/2000/svg">
<path d="M63.9791 33.7946C63.5647 32.0985 62.9112 30.6104 62.0188 29.3303C61.1263 28.0182 60.0106 26.9141 58.6715 26.018C57.3647 25.09 55.8345 24.4019 54.081 23.9539C52.3597 23.4738 50.4629 23.2338 48.3908 23.2338C43.9278 23.2338 40.1186 24.3059 36.9625 26.45C33.8386 28.5942 31.4477 31.6825 29.7901 35.7148C28.1643 39.7473 27.3514 44.6114 27.3514 50.3081C27.3514 56.0682 28.1324 60.9966 29.6944 65.0932C31.2564 69.1895 33.5835 72.3256 36.6756 74.5016C39.7678 76.678 43.6091 77.7662 48.1996 77.7662C52.2482 77.7662 55.6112 77.174 58.2889 75.9897C60.9988 74.8058 63.0231 73.1258 64.3617 70.9495C65.7008 68.7735 66.3699 66.2129 66.3699 63.2691L70.9605 63.7489H48.5823V44.7395H92V58.3726C92 67.333 90.1033 74.9977 86.3098 81.3665C82.5481 87.7029 77.352 92.5671 70.7215 95.9593C64.1227 99.3197 56.5515 101 48.0085 101C38.477 101 30.1088 98.9678 22.9044 94.9035C15.6999 90.8391 10.0735 85.0467 6.02497 77.5259C2.00831 70.0055 0 61.0608 0 50.6918C0 42.5635 1.22732 35.3627 3.68193 29.0903C6.16841 22.8178 9.61123 17.5214 14.0104 13.201C18.4096 8.84869 23.4941 5.56843 29.264 3.36025C35.034 1.12009 41.2183 0 47.817 0C53.6191 0 59.0063 0.832069 63.9791 2.4962C68.9841 4.12833 73.3992 6.46451 77.2245 9.50475C81.0819 12.513 84.1901 16.0813 86.5488 20.2096C88.9078 24.3379 90.3423 28.8663 90.8525 33.7946H63.9791Z" fill="black"/>
</svg>
