<svg width="71" height="100" viewBox="0 0 71 100" fill="none" xmlns="http://www.w3.org/2000/svg">
<path d="M44.9223 0H71V67.6298C70.9684 74.0526 69.3663 79.7045 66.1937 84.5854C63.0532 89.4347 58.7069 93.2241 53.1551 95.9536C47.6348 98.6511 41.2741 100 34.0727 100C27.8229 100 22.1125 98.9081 16.9414 96.7242C11.7703 94.5086 7.64612 91.0403 4.56881 86.3198C1.49155 81.5669 -0.03124 75.4011 0.000485609 67.8227H26.4588C26.5539 70.2952 26.9664 72.3826 27.696 74.0846C28.4574 75.7866 29.5044 77.0711 30.8368 77.9381C32.2009 78.773 33.8506 79.1905 35.7858 79.1905C37.7527 79.1905 39.4025 78.7572 40.7347 77.8902C42.0989 77.0228 43.13 75.7383 43.828 74.0364C44.5259 72.3024 44.8907 70.1667 44.9223 67.6298V0Z" fill="black"/>
</svg>
