<svg width="96" height="99" viewBox="0 0 96 99" fill="none" xmlns="http://www.w3.org/2000/svg">
<path d="M96 49.5C96 60.2282 93.8633 69.278 89.5903 76.6495C85.3173 83.9898 79.55 89.5578 72.2891 93.3536C65.0282 97.1177 56.9315 99 47.9999 99C39.0038 99 30.8755 97.1019 23.6144 93.3065C16.3855 89.4794 10.6345 83.8959 6.36145 76.5553C2.1205 69.1838 0 60.1652 0 49.5C0 38.7717 2.1205 29.7376 6.36145 22.3973C10.6345 15.0256 16.3855 9.45769 23.6144 5.69343C30.8755 1.89781 39.0038 0 47.9999 0C56.9315 0 65.0282 1.89781 72.2891 5.69343C79.55 9.45769 85.3173 15.0256 89.5903 22.3973C93.8633 29.7376 96 38.7717 96 49.5ZM68.4338 49.5C68.4338 43.728 67.6466 38.866 66.072 34.9134C64.5302 30.9296 62.2329 27.9182 59.1806 25.8792C56.1606 23.8089 52.4335 22.7737 47.9999 22.7737C43.5663 22.7737 39.8233 23.8089 36.771 25.8792C33.751 27.9182 31.4538 30.9296 29.8795 34.9134C28.3373 38.866 27.5662 43.728 27.5662 49.5C27.5662 55.2719 28.3373 60.1498 29.8795 64.1333C31.4538 68.0859 33.751 71.0974 36.771 73.1677C39.8233 75.2068 43.5663 76.2263 47.9999 76.2263C52.4335 76.2263 56.1606 75.2068 59.1806 73.1677C62.2329 71.0974 64.5302 68.0859 66.072 64.1333C67.6466 60.1498 68.4338 55.2719 68.4338 49.5Z" fill="black"/>
</svg>
