<svg width="94" height="106" viewBox="0 0 94 106" fill="none" xmlns="http://www.w3.org/2000/svg">
<path d="M37.6756 62.6104H58.0202L65.3668 71.9354L77.7997 86.2082L94 106H70.8299L59.3386 92.4883L51.6151 81.2604L37.6756 62.6104ZM93.8118 50.0503C93.8118 60.8978 91.7238 70.0482 87.5482 77.5017C83.3726 84.9235 77.7371 90.5535 70.6413 94.3915C63.5459 98.1975 55.6342 100.101 46.9057 100.101C38.115 100.101 30.1717 98.1815 23.0762 94.3438C16.012 90.4742 10.3921 84.8286 6.21645 77.4064C2.07216 69.953 0 60.8341 0 50.0503C0 39.2028 2.07216 30.0682 6.21645 22.6463C10.3921 15.1927 16.012 9.56284 23.0762 5.75673C30.1717 1.91891 38.115 0 46.9057 0C55.6342 0 63.5459 1.91891 70.6413 5.75673C77.7371 9.56284 83.3726 15.1927 87.5482 22.6463C91.7238 30.0682 93.8118 39.2028 93.8118 50.0503ZM66.8739 50.0503C66.8739 44.2142 66.1047 39.2981 64.5663 35.3016C63.0593 31.2735 60.8144 28.2286 57.8316 26.167C54.8805 24.0736 51.2386 23.0269 46.9057 23.0269C42.5732 23.0269 38.9155 24.0736 35.9328 26.167C32.9817 28.2286 30.7368 31.2735 29.1984 35.3016C27.6914 39.2981 26.9379 44.2142 26.9379 50.0503C26.9379 55.8864 27.6914 60.8185 29.1984 64.8463C30.7368 68.8428 32.9817 71.8878 35.9328 73.9811C38.9155 76.0429 42.5732 77.0737 46.9057 77.0737C51.2386 77.0737 54.8805 76.0429 57.8316 73.9811C60.8144 71.8878 63.0593 68.8428 64.5663 64.8463C66.1047 60.8185 66.8739 55.8864 66.8739 50.0503Z" fill="black"/>
</svg>
