<svg width="80" height="101" viewBox="0 0 80 101" fill="none" xmlns="http://www.w3.org/2000/svg">
<path d="M53.893 32.1276C53.6443 28.9213 52.4788 26.4203 50.3962 24.6248C48.3449 22.8292 45.2215 21.9314 41.0256 21.9314C38.3529 21.9314 36.1617 22.2681 34.4523 22.9415C32.774 23.5827 31.5307 24.4645 30.7227 25.5867C29.9146 26.7089 29.495 27.9915 29.4639 29.4343C29.4018 30.6207 29.6038 31.6948 30.07 32.6567C30.5673 33.5865 31.3443 34.4362 32.401 35.2057C33.4577 35.9432 34.8097 36.6166 36.4569 37.2257C38.1042 37.8348 40.0621 38.3799 42.3311 38.8611L50.1632 40.5924C55.4469 41.7466 59.9689 43.2695 63.7297 45.1615C67.4902 47.0531 70.5674 49.2818 72.9603 51.8468C75.3537 54.3798 77.1096 57.2334 78.2288 60.4075C79.3786 63.582 79.969 67.0446 80 70.7962C79.969 77.2731 78.3994 82.756 75.2917 87.2449C72.1836 91.7339 67.739 95.1484 61.9582 97.4892C56.2084 99.8296 49.2931 101 41.2123 101C32.9138 101 25.6722 99.7337 19.4872 97.2006C13.3334 94.6676 8.54704 90.7719 5.12823 85.5132C1.74049 80.2229 0.03108 73.4575 0 65.2174H24.6154C24.7708 68.2312 25.5012 70.7642 26.8066 72.8161C28.1119 74.8683 29.9457 76.4232 32.3078 77.4815C34.7009 78.5394 37.5448 79.0687 40.8392 79.0687C43.6053 79.0687 45.9209 78.7158 47.7855 78.0104C49.6504 77.305 51.0646 76.3273 52.0281 75.0767C52.9916 73.8262 53.489 72.3992 53.52 70.7962C53.489 69.2891 53.0073 67.9746 52.0748 66.8524C51.1733 65.6982 49.6814 64.6722 47.5992 63.7742C45.5169 62.8446 42.7041 61.9789 39.161 61.1772L29.6504 59.061C21.1966 57.1691 14.5299 54.0111 9.65036 49.5861C4.80188 45.1295 2.39317 39.0533 2.42425 31.3581C2.39317 25.1057 4.00934 19.6389 7.27273 14.9576C10.5672 10.2443 15.1205 6.57304 20.9324 3.94381C26.7755 1.3146 33.4733 0 41.0256 0C48.7337 0 55.4002 1.33064 61.0257 3.99192C66.6511 6.65317 70.9871 10.4046 74.0328 15.2462C77.1096 20.0557 78.6638 25.6829 78.6948 32.1276H53.893Z" fill="black"/>
</svg>
