<svg width="84" height="100" viewBox="0 0 84 100" fill="none" xmlns="http://www.w3.org/2000/svg">
<path d="M57.5839 0H84V63.3205C84 70.8494 82.2265 77.365 78.6788 82.867C75.163 88.3365 70.2536 92.5677 63.9505 95.56C57.647 98.5201 50.3305 100 42.0001 100C33.6064 100 26.258 98.5201 19.9548 95.56C13.6516 92.5677 8.7421 88.3365 5.22627 82.867C1.7421 77.365 0 70.8494 0 63.3205V0H26.4163V61.004C26.4163 64.0604 27.0815 66.7956 28.4118 69.2087C29.7421 71.5893 31.5793 73.4558 33.9232 74.8069C36.2987 76.1584 38.9909 76.8342 42.0001 76.8342C45.0409 76.8342 47.7331 76.1584 50.077 74.8069C52.421 73.4558 54.258 71.5893 55.5885 69.2087C56.9186 66.7956 57.5839 64.0604 57.5839 61.004V0Z" fill="black"/>
</svg>
