<svg width="79" height="98" viewBox="0 0 79 98" fill="none" xmlns="http://www.w3.org/2000/svg">
<path d="M0 98V0H41.6578C48.9764 0 55.1218 1.00489 60.0944 3.01465C65.0982 5.02441 68.8669 7.86359 71.4003 11.5322C73.9646 15.2008 75.2468 19.5234 75.2468 24.5C75.2468 28.1048 74.4652 31.3906 72.9012 34.3574C71.3688 37.3243 69.2111 39.8123 66.4273 41.8224C63.644 43.8002 60.3913 45.172 56.6696 45.9375V46.8946C60.7979 47.054 64.5511 48.1227 67.9286 50.1005C71.3064 52.0465 73.9958 54.7423 75.9976 58.1874C77.9989 61.601 79 65.6203 79 70.246C79 75.6053 77.6239 80.3747 74.8717 84.5538C72.1508 88.7326 68.2728 92.0186 63.2374 94.4112C58.2024 96.8037 52.1975 98 45.2231 98H0ZM26.0831 76.754H38.2803C42.6588 76.754 45.9424 75.9246 48.1316 74.2657C50.3209 72.5749 51.4155 70.0865 51.4155 66.8009C51.4155 64.5038 50.8996 62.5578 49.8677 60.9628C48.8354 59.3679 47.3654 58.1555 45.4576 57.3261C43.5814 56.4966 41.3139 56.0819 38.6557 56.0819H26.0831V76.754ZM26.0831 39.6211H36.7791C39.0619 39.6211 41.0795 39.2542 42.8306 38.5206C44.5821 37.787 45.9424 36.734 46.9122 35.3622C47.9129 33.9586 48.4131 32.252 48.4131 30.2422C48.4131 27.2116 47.35 24.8988 45.2231 23.3037C43.0966 21.6768 40.4068 20.8633 37.1545 20.8633H26.0831V39.6211Z" fill="black"/>
</svg>
