<svg width="77" height="96" viewBox="0 0 77 96" fill="none" xmlns="http://www.w3.org/2000/svg">
<path d="M0 96V0H41.4038C48.5232 0 54.7525 1.40624 60.092 4.21875C65.4315 7.03123 69.5843 10.9844 72.5508 16.0781C75.5169 21.1719 77 27.125 77 33.9376C77 40.8126 75.47 46.7655 72.4101 51.7969C69.3813 56.8283 65.119 60.7032 59.6234 63.422C54.1594 66.1405 47.7739 67.5001 40.4674 67.5001H15.7372V47.2498H35.2214C38.2816 47.2498 40.8887 46.7189 43.0434 45.6563C45.2291 44.5625 46.8994 43.0156 48.0549 41.0158C49.2412 39.0156 49.8348 36.6561 49.8348 33.9376C49.8348 31.1875 49.2412 28.8438 48.0549 26.9063C46.8994 24.9375 45.2291 23.4375 43.0434 22.4063C40.8887 21.3437 38.2816 20.8125 35.2214 20.8125H26.0414V96H0Z" fill="black"/>
</svg>
