<svg width="82" height="96" viewBox="0 0 82 96" fill="none" xmlns="http://www.w3.org/2000/svg">
<path d="M0 96V0H42.3412C49.6216 0 55.992 1.29686 61.4524 3.89062C66.9123 6.48439 71.1595 10.2187 74.1928 15.0938C77.2264 19.9687 78.7431 25.8125 78.7431 32.625C78.7431 39.5 77.1785 45.297 74.0493 50.0156C70.9519 54.7342 66.5931 58.2968 60.9732 60.7032C55.3851 63.1093 48.8551 64.3127 41.3832 64.3127H16.0935V44.0624H36.0187C39.1479 44.0624 41.8144 43.6877 44.0174 42.9375C46.2527 42.1561 47.9611 40.9219 49.1424 39.2345C50.356 37.5467 50.9626 35.3438 50.9626 32.625C50.9626 29.875 50.356 27.6406 49.1424 25.9219C47.9611 24.1719 46.2527 22.8906 44.0174 22.0781C41.8144 21.2344 39.1479 20.8125 36.0187 20.8125H26.6309V96H0ZM57.4768 51.9377L82 96H53.07L29.1215 51.9377H57.4768Z" fill="black"/>
</svg>
